<svg width="122" height="129" viewBox="0 0 122 129" fill="none" xmlns="http://www.w3.org/2000/svg">
<path d="M12.7971 111.794C12.6802 111.716 12.566 111.633 12.4551 111.546C6.1121 106.675 0.471366 94.3943 0.0639719 86.401C-0.858954 68.0603 8.26878 49.4199 23.2772 38.8341C36.8932 29.2301 52.406 25.5501 65.7009 15.2296C68.5264 13.0298 71.3219 10.7918 74.0866 8.51593C78.2553 5.11045 81.5756 1.6587 86.9815 0.418528C91.0365 -0.511741 93.5284 0.057764 96.8083 2.64148C97.7307 3.37512 98.3248 3.92039 99.1708 4.74216C99.6028 5.06473 100.259 5.75688 100.667 6.16244C101.777 4.60502 103.418 1.83477 105.181 1.3286C105.864 1.30749 106.196 1.62345 106.763 2.01524C107.504 2.51168 109.264 3.96078 109.637 4.17908C110.279 4.78292 110.252 4.58849 110.47 5.34049C110.297 5.97205 110.115 6.16134 109.728 6.6855C108.633 7.83553 108.091 8.42303 107.186 9.71498C109.828 10.3491 111.82 11.5232 113.563 13.6365C116.851 17.5845 121.963 22.3863 121.327 28.1577C121.26 29.7779 121.101 31.2942 120.677 32.8673C119.282 39.0041 115.71 45.6197 113.178 51.4069C112.378 53.2351 111.192 55.5894 110.616 57.4602C109.141 62.3344 102.838 89.266 101.043 91.3755C97.2429 101.058 89.1888 112.258 80.8019 118.443C77.582 120.817 74.2083 122.578 70.5594 124.167C58.5584 129.505 44.9034 129.739 32.7264 124.815C28.6335 123.201 21.379 119.496 18.2834 116.409C17.5566 116.172 13.5383 112.524 12.7971 111.794ZM43.1217 58.6572L43.3664 58.2548C43.1523 57.8099 43.0089 57.6295 42.7257 57.238L41.639 57.2096C41.867 57.9709 42.3671 58.1103 43.1217 58.6572Z" fill="#D07902"/>
<path d="M90.0111 79.829C90.9132 78.9079 91.4286 78.339 92.8555 78.2468C94.6676 78.1297 96.7769 78.484 98.2058 79.6364C100.094 80.9745 101.222 85.9247 102.076 86.5273L102.57 86.3528C102.449 87.8664 100.574 90.6322 101.043 91.3752C97.2426 101.058 89.1886 112.258 80.8016 118.443C77.5818 120.817 74.2081 122.578 70.5591 124.166C58.5582 129.505 44.9032 129.739 32.7261 124.815C28.6333 123.2 21.3788 119.495 18.2832 116.409C18.2507 116.061 17.7948 115.625 17.5288 115.295C17.9927 115.049 17.9983 115.132 18.5601 115.147C25.3411 118.346 30.176 119.959 37.7794 119.188C60.8112 116.854 79.2525 99.3184 90.0111 79.829Z" fill="#600600"/>
<path d="M104.132 41.3506C105.073 45.5187 109.726 49.3411 111.581 53.1581C112.112 54.2515 109.678 56.1774 110.616 57.46C109.141 62.3343 102.838 89.2658 101.043 91.3753C100.574 90.6323 102.449 87.8665 102.571 86.3529L102.076 86.5273C101.223 85.9248 100.094 80.9745 98.2059 79.6365C96.777 78.4841 94.6677 78.1297 92.8557 78.2469C91.4288 78.339 90.9134 78.908 90.0112 79.8291C90.3355 78.91 91.3895 76.8481 91.8417 75.8835C92.854 73.736 93.743 71.5325 94.5043 69.2838C96.632 62.8077 98.2195 55.9068 100.472 49.4641C100.988 47.9866 101.859 45.2553 102.534 43.9198L102.773 43.9651C103.232 43.394 103.799 42.0626 104.132 41.3506Z" fill="#A84503"/>
<path d="M113.562 13.6357C116.851 17.5837 121.963 22.3855 121.327 28.1569C121.26 29.7771 121.101 31.2934 120.677 32.8665C119.282 39.0033 115.71 45.6189 113.178 51.4061C112.378 53.2343 111.192 55.5886 110.616 57.4594C109.678 56.1768 112.112 54.2509 111.581 53.1574C109.726 49.3405 105.072 45.5181 104.132 41.35C103.799 42.0619 103.232 43.3934 102.773 43.9645L102.534 43.9192C103.002 42.8428 103.493 41.7757 104.004 40.7189C103.724 38.9607 113.822 25.4107 113.856 18.5505C113.829 16.9709 113.118 14.9692 113.217 13.8526L113.562 13.6357Z" fill="#4B2F00"/>
<path d="M113.563 13.6357C116.851 17.5837 121.963 22.3855 121.327 28.1569C121.26 29.7771 121.101 31.2934 120.677 32.8665C120.24 32.8718 120.194 32.8196 119.789 32.616C119.006 29.8831 116.803 27.9456 116.686 24.8071C116.592 24.0839 116.435 23.4374 116.49 22.7049C116.53 22.1651 116.274 21.7234 116.246 21.0689C115.538 19.8425 115.141 18.924 114.521 17.6491L114.071 17.6592L114.232 17.4354L114.091 17.4393L113.857 18.5505C113.829 16.9709 113.118 14.9692 113.218 13.8526L113.563 13.6357Z" fill="#CF7D01"/>
<path d="M116.246 21.0693C118.747 24.4548 120.587 26.0748 120.621 30.4565L120.492 30.6261L120.625 30.6717L120.569 31.2918C120.482 30.5558 120.838 28.7149 121.327 28.1573C121.26 29.7776 121.101 31.2939 120.677 32.8669C120.24 32.8722 120.194 32.8201 119.79 32.6165C119.006 29.8835 116.803 27.946 116.686 24.8075C116.592 24.0843 116.435 23.4379 116.49 22.7053C116.53 22.1656 116.274 21.7238 116.246 21.0693Z" fill="#9F6604"/>
<path d="M113.857 18.5507L114.091 17.4394L114.232 17.4355L114.071 17.6593L114.522 17.6493C115.141 18.9241 115.538 19.8426 116.246 21.0691C116.274 21.7236 116.53 22.1653 116.49 22.7051C116.435 23.4376 116.592 24.084 116.687 24.8072C116.803 27.9457 119.007 29.8832 119.79 32.6162C117.209 29.6963 116.574 25.3633 112.921 24.3137C112.046 26.186 104.939 40.1138 104.004 40.7191C103.724 38.9608 113.822 25.4109 113.857 18.5507Z" fill="#956802"/>
<path d="M100.667 6.16199C101.778 4.60456 103.418 1.83432 105.181 1.32815C105.864 1.30704 106.196 1.623 106.763 2.01479C107.504 2.51123 109.265 3.96033 109.637 4.17863C110.279 4.78246 110.252 4.58804 110.47 5.34004C110.297 5.9716 110.115 6.16089 109.728 6.68505C108.633 7.83508 108.091 8.42258 107.186 9.71453C106.292 9.9644 103.913 8.85256 102.935 8.45801C101.729 7.4286 101.67 6.81338 100.068 6.88021L99.7444 6.44766C99.3949 5.70484 99.3312 5.54383 99.1709 4.74171C99.6029 5.06428 100.259 5.75643 100.667 6.16199Z" fill="#3C1700"/>
<path d="M100.667 6.16199C101.778 4.60456 103.418 1.83432 105.181 1.32815C105.864 1.30704 106.196 1.623 106.763 2.01479C106.481 3.02492 103.796 7.98654 102.935 8.45801C101.729 7.4286 101.67 6.81338 100.068 6.88021L99.7444 6.44766C99.3949 5.70484 99.3312 5.54383 99.1709 4.74171C99.6029 5.06428 100.259 5.75643 100.667 6.16199Z" fill="#D0690C"/>
<path d="M109.637 4.17871C110.279 4.78255 110.252 4.58813 110.47 5.34013C110.297 5.97169 110.115 6.16097 109.728 6.68513C109.626 5.67978 109.577 5.20665 109.637 4.17871Z" fill="#2B0100"/>
<path d="M12.7974 111.794C13.6522 112.053 17.3622 114.504 18.5606 115.147C17.9988 115.132 17.9933 115.049 17.5293 115.295C17.7953 115.625 18.2512 116.061 18.2837 116.409C17.5568 116.172 13.5385 112.524 12.7974 111.794Z" fill="#5F1601"/>
<path d="M96.8081 2.64062C97.7305 3.37427 98.3246 3.91954 99.1706 4.7413C99.3309 5.54343 99.3946 5.70444 99.7441 6.44726C99.1096 5.92273 98.9055 5.70095 98.1146 5.50689C97.4046 4.52228 96.8412 3.85124 96.8081 2.64062Z" fill="#9F6604"/>
<path d="M98.1147 5.50781C98.9057 5.70187 99.1098 5.92365 99.7443 6.44818L100.068 6.88073C99.6817 7.12821 99.8899 7.059 99.414 7.07258C98.8438 6.78067 98.4729 6.06502 98.1147 5.50781Z" fill="#956802"/>
<path d="M78.3495 33.2142C78.8398 32.7209 78.6375 32.8004 79.2017 32.6533C80.3585 33.5549 80.2341 36.5644 80.2711 37.9383C80.3616 38.809 80.4516 39.5096 80.4149 40.3922C80.3756 41.8011 80.3743 43.4051 80.1417 44.7779C79.6923 46.106 79.3998 47.0384 79.0844 48.4007C78.449 50.6323 76.5826 55.4386 76.2882 57.6162L76.0828 58.8213C75.6912 61.2053 75.4501 62.0259 74.4154 64.2059C74.2362 64.6796 73.3776 66.6716 73.3801 66.9189C72.4662 68.6797 72.0202 69.2202 71.0846 70.7828C70.6809 71.4 68.8391 75.0481 68.8887 75.0066C65.8028 77.5914 65.1215 81.8442 62.484 84.7561C61.3882 86.4423 57.1616 89.2424 55.0824 89.8587C54.7804 89.9483 53.3128 89.9162 52.9026 89.9069C52.8984 90.8026 52.7025 91.0304 52.222 91.8081L52.299 91.9427C54.5998 91.3348 54.3334 90.6194 55.3411 90.2843C58.7631 89.1468 63.1303 85.8847 64.8843 82.7116C66.4586 79.8635 66.7122 78.9562 68.8746 76.1753L69.2702 76.1592C70.0266 75.1784 70.6167 74.3062 71.3206 73.2887L71.6659 73.35C71.5536 74.4921 69.9833 75.3844 70.3029 76.1737L70.5636 75.9242L70.9605 75.9759C70.9824 77.4702 67.7078 81.3365 66.6472 82.4322C65.8392 83.2672 65.1116 83.5554 64.2517 84.2612C62.9735 85.4674 60.8733 87.7619 59.4474 88.6011C55.4902 90.9302 52.4323 92.5816 48.0262 93.7968C43.6831 94.9948 40.2045 97.1026 35.3641 96.8384C32.1822 96.8544 28.3956 95.6333 25.2567 96.2968C24.0968 96.5421 23.5627 97.0901 22.6875 97.371C22.7191 97.1283 22.7385 96.9479 22.754 96.7004L22.5717 96.4931C22.4879 96.4105 22.3908 96.3146 22.2801 96.2056C22.5691 93.7656 22.8195 92.1113 22.114 89.7684C21.4851 89.211 20.7502 87.2987 20.6604 86.3473C20.2026 84.1084 20.0379 83.3142 20.2589 81.0027C20.4589 78.9134 22.5487 66.2157 23.9951 65.0998C26.2048 65.5533 25.0884 64.6247 25.8938 63.8474C26.8248 62.949 28.4764 62.0832 29.3654 61.1058C30.5444 59.8098 31.1604 58.583 32.4965 57.3753C30.9545 57.2876 30.3689 57.4005 28.8328 57.6575L28.5895 57.4469L28.6462 57.6885L28.4751 57.7107L28.3666 57.6061C29.2607 56.909 29.9855 56.4032 30.9314 55.7771C34.5354 52.1954 39.1454 47.522 44.3126 46.2137C46.3386 45.0821 50.3257 43.8243 52.6875 42.9412C57.285 41.2222 62.7027 37.963 67.2275 36.6043C68.8575 36.1198 70.5118 35.4713 72.2242 34.9798C73.9924 34.4722 76.7208 33.8557 78.3495 33.2142ZM43.1219 58.6568L43.3666 58.2544C43.1525 57.8095 43.0091 57.629 42.7258 57.2376L41.6392 57.2092C41.8672 57.9705 42.3673 58.1099 43.1219 58.6568Z" fill="#2B0100"/>
<path d="M41.6392 57.209L42.7259 57.2374C43.0091 57.6289 43.1525 57.8093 43.3666 58.2542L43.1219 58.6566C42.3673 58.1097 41.8672 57.9703 41.6392 57.209Z" fill="#5F1601" fill-opacity="0.988235"/>
<path d="M78.3494 33.2142C78.8397 32.7209 78.6374 32.8004 79.2016 32.6533C80.3584 33.5549 80.234 36.5644 80.271 37.9383C80.3616 38.809 80.4515 39.5096 80.4148 40.3922C80.3755 41.8011 80.3742 43.4051 80.1416 44.7779C79.6922 46.106 79.3997 47.0384 79.0843 48.4007C78.4489 50.6323 76.5825 55.4386 76.2881 57.6162C76.261 57.2844 75.3704 53.2645 75.2731 53.0388L75.3303 52.095C74.5835 51.4888 73.5172 50.2464 72.6003 50.6978L72.3704 51.5124L71.9069 51.9329C71.512 51.6769 71.3047 51.6479 70.8628 51.5284C70.2881 51.4961 69.8093 50.9209 68.7749 50.8418L68.636 50.8319L68.4228 50.3723L68.392 51.0608L68.4147 51.2251C67.9056 51.6019 67.7062 51.6936 67.1072 51.582C66.6834 51.1179 66.7027 50.0945 66.6526 49.4331C66.9779 47.0423 67.5865 45.4948 66.988 43.2028C67.0407 43.0851 67.0558 42.793 67.071 42.6473L66.7257 42.3372L65.9814 42.1066C65.5923 41.6546 65.7104 41.6602 65.6377 40.9453C65.9342 39.8238 66.0895 38.3864 67.1657 37.898L67.1845 37.8086C67.9919 37.3139 73.8554 36.7317 75.2604 35.7695C76.2924 35.0626 77.4868 34.3576 78.6868 34.868C78.6769 34.4021 78.6694 33.9359 78.6642 33.4698L78.3494 33.2142Z" fill="#360200"/>
<path d="M78.3491 33.2142C78.8395 32.7209 78.6372 32.8004 79.2014 32.6533C80.3582 33.5549 80.2337 36.5644 80.2708 37.9383C80.3613 38.809 80.4513 39.5096 80.4146 40.3922L79.7692 40.0075L79.3756 40.3617C78.2116 40.3435 77.2287 40.1759 76.3155 40.9147C76.0946 41.2284 75.7193 41.7262 75.5592 42.052C73.725 41.8011 73.9794 40.0213 71.4031 39.7173L71.5204 40.1315L71.3061 40.3075L70.4186 40.1544L68.6629 38.707C68.2922 38.5415 67.5531 38.1086 67.1655 37.898L67.1843 37.8086C67.9917 37.3139 73.8551 36.7317 75.2602 35.7695C76.2922 35.0626 77.4866 34.3576 78.6866 34.868C78.6767 34.4021 78.6691 33.9359 78.664 33.4698L78.3491 33.2142Z" fill="#5F1601"/>
<path d="M71.4032 39.7173C71.2479 39.4867 71.1875 39.2838 71.0903 39.0257L71.2747 38.6491C71.9499 38.3126 73.3551 38.4947 74.1841 38.5204C74.9102 38.707 75.6003 38.8382 76.181 39.3334C77.4179 39.9159 79.0555 39.342 79.7694 40.0075L79.3757 40.3617C78.2117 40.3435 77.2288 40.1759 76.3156 40.9147C76.0947 41.2284 75.7195 41.7262 75.5594 42.052C73.7251 41.8011 73.9795 40.0213 71.4032 39.7173Z" fill="#380400"/>
<path d="M68.6631 38.7066C69.4959 37.1157 72.8632 38.0229 74.1841 38.5201C73.3552 38.4943 71.95 38.3122 71.2747 38.6488L71.0904 39.0253C71.1875 39.2834 71.2479 39.4863 71.4032 39.7169L71.5205 40.1311L71.3063 40.3072L70.4188 40.154L68.6631 38.7066Z" fill="#471001"/>
<path d="M78.3491 33.2142C78.8395 32.7209 78.6372 32.8004 79.2014 32.6533C80.3582 33.5549 80.2337 36.5644 80.2708 37.9383C80.0007 37.2492 79.5742 36.8505 79.0785 36.2978C79.0181 35.9215 78.8008 35.2589 78.6866 34.868C78.6767 34.4021 78.6691 33.9359 78.664 33.4698L78.3491 33.2142Z" fill="#CE4C06"/>
<path d="M79.0788 36.2979C79.5745 36.8505 80.001 37.2492 80.2711 37.9383C80.3616 38.809 80.4515 39.5096 80.4148 40.3922L79.7695 40.0075C79.0557 39.342 77.418 39.9159 76.1812 39.3334C77.1151 38.7088 78.1201 39.327 78.9424 38.9433C79.654 38.6111 78.647 37.1964 79.0788 36.2979Z" fill="#7D0000"/>
<path d="M75.2671 48.2012L75.3308 47.573C75.7971 47.3804 77.1089 48.2389 77.7091 48.3323C78.1545 48.4017 78.6366 48.4003 79.0845 48.4012C78.4491 50.6328 76.5827 55.4391 76.2884 57.6167C76.2612 57.2849 75.3706 53.2649 75.2733 53.0393L75.3306 52.0954C75.8935 50.2523 75.7382 50.0473 75.2671 48.2012Z" fill="#D0690C"/>
<path d="M67.1657 37.8984C67.5533 38.109 68.2925 38.5419 68.6631 38.7074L70.4188 40.1548C69.5284 41.9933 68.1518 41.8127 66.7257 42.3375L65.9814 42.107C65.5923 41.655 65.7104 41.6606 65.6377 40.9457C65.9342 39.8242 66.0895 38.3868 67.1657 37.8984Z" fill="#CE4C06"/>
<path d="M79.7697 40.0078L80.415 40.3924C80.3757 41.8013 80.3744 43.4054 80.1418 44.7781C79.4989 44.4675 79.6169 44.6355 79.2953 44.0834C79.15 43.5141 79.1346 43.2705 78.6756 42.8809C77.5937 42.3624 77.0865 41.8019 76.3159 40.915C77.2291 40.1762 78.2121 40.3438 79.3761 40.362L79.7697 40.0078Z" fill="#5F1601"/>
<path d="M79.7693 40.0078L80.4147 40.3924C80.3754 41.8013 80.3741 43.4054 80.1415 44.7781C79.4985 44.4675 79.6166 44.6355 79.2949 44.0834C79.1497 43.5141 79.1343 43.2705 78.6753 42.8809C79.6829 42.2952 79.4574 41.3523 79.3757 40.362L79.7693 40.0078Z" fill="#78350B"/>
<path d="M69.9868 48.9501L70.6339 48.7402C72.3285 49.3173 72.3012 49.7954 72.37 51.512L71.9064 51.9324C71.5115 51.6765 71.3042 51.6474 70.8623 51.5279C70.2877 51.4956 69.8089 50.9204 68.7745 50.8413L68.6355 50.8314L68.4224 50.3718C68.9348 49.5301 69.125 49.4423 69.9868 48.9501Z" fill="#78350B"/>
<path d="M69.9868 48.9502C70.6075 49.7813 71.3681 50.4659 70.8623 51.528C70.2877 51.4957 69.8089 50.9205 68.7745 50.8414L68.6355 50.8315L68.4224 50.3719C68.9348 49.5302 69.125 49.4424 69.9868 48.9502Z" fill="#A84503"/>
<path d="M75.2667 48.2012C75.7378 50.0472 75.8931 50.2523 75.3302 52.0954C74.5834 51.4892 73.5171 50.2468 72.6002 50.6982L72.3703 51.5128C72.3015 49.7962 72.3288 49.3182 70.6343 48.7411C72.2134 48.6545 74.2694 49.6828 75.2081 49.1652L75.2667 48.2012Z" fill="#471001"/>
<path d="M76.3156 40.915C77.0861 41.802 77.5934 42.3625 78.6753 42.881C79.1343 43.2705 79.1497 43.5142 79.2949 44.0835C77.9386 43.897 76.1843 44.3526 75.2574 43.2761C75.214 42.5165 75.1997 42.771 75.5594 42.0524C75.7195 41.7265 76.0947 41.2288 76.3156 40.915Z" fill="#B85420"/>
<path d="M70.9897 43.6964C71.7825 43.6423 72.7688 43.4212 73.373 43.7996C73.4291 44.3082 72.9652 45.1912 72.6377 45.5797C71.7362 46.6804 71.7212 46.8682 70.2897 46.8493C69.3029 46.7913 68.4299 45.9555 68.6219 44.9788C68.7093 44.5353 69.3291 44.0893 69.6548 43.8253L70.9897 43.6964Z" fill="#5F1601"/>
<path d="M69.6548 43.8252C70.5491 43.9443 70.4178 43.7888 70.9773 44.3115C71.3518 45.1853 70.8722 46.1785 70.2897 46.8492C69.3029 46.7912 68.4299 45.9554 68.6219 44.9787C68.7093 44.5352 69.3291 44.0892 69.6548 43.8252Z" fill="#A84503"/>
<path d="M70.9897 43.6964C71.7825 43.6423 72.7688 43.4212 73.373 43.7996C73.4291 44.3082 72.9652 45.1912 72.6377 45.5797C72.6357 45.2239 72.4697 44.6838 72.3761 44.3218C71.7707 43.7109 71.9496 43.8903 70.9897 43.6964Z" fill="#471001"/>
<path d="M30.9314 55.7773C34.5354 52.1955 39.1454 47.5222 44.3126 46.2139L44.5425 46.3327L44.3798 46.3929C43.022 46.9053 42.4389 47.4384 42.1345 48.8385C41.4434 49.3511 39.6123 51.0684 39.1647 51.32L39.1083 51.4338C38.7521 52.168 38.4703 53.6123 38.0802 54.0502C36.8229 55.4611 33.5643 55.7784 33.4872 57.9132C33.836 58.4585 33.9222 58.517 34.4239 58.9004C34.8421 59.5187 34.7803 59.2505 34.7325 59.9133L34.5521 60.0491C34.0292 59.5485 33.0934 58.5003 32.4295 58.4877C31.6557 59.4692 31.3315 60.3254 30.7339 61.2394C29.8662 62.5664 27.0591 64.549 25.6351 65.2188C25.9988 65.7906 26.113 65.814 26.7407 66.037L26.3306 66.0392C25.8126 66.1802 25.3623 66.2223 25.0627 66.6288C25.0526 67.4858 25.227 67.494 25.3156 68.1768C25.8451 68.819 26.2052 68.9789 26.9311 69.3994C25.511 70.2331 23.6673 80.046 23.9982 81.3708C24.2708 81.7404 24.4491 81.9915 24.7709 82.3282C24.8067 83.4953 25.0593 85.737 24.3582 86.5634C23.5416 87.1325 22.7776 86.8024 21.9217 86.6636L21.6766 86.8312C21.3441 86.4422 21.1653 86.4558 20.6604 86.3475C20.2026 84.1085 20.0379 83.3143 20.2589 81.0029C20.4589 78.9136 22.5487 66.2159 23.9951 65.1C26.2048 65.5534 25.0884 64.6248 25.8938 63.8475C26.8248 62.9492 28.4764 62.0833 29.3654 61.1059C30.5444 59.8099 31.1604 58.5831 32.4965 57.3754C30.9545 57.2877 30.3689 57.4006 28.8328 57.6576L28.5895 57.4471L28.6462 57.6887L28.4751 57.7109L28.3666 57.6062C29.2607 56.9091 29.9855 56.4033 30.9314 55.7773Z" fill="#CD2E01"/>
<path d="M30.9309 55.7773C34.5349 52.1955 39.1449 47.5222 44.3122 46.2139L44.542 46.3327L44.3793 46.3929C43.0215 46.9053 42.4384 47.4384 42.134 48.8385C41.4429 49.3511 39.6118 51.0684 39.1642 51.32C38.0812 52.0411 37.6497 52.7377 36.17 52.3097C34.6092 53.0364 31.881 57.1572 30.3392 57.1952C30.122 56.6664 30.5891 56.1766 30.9309 55.7773Z" fill="#CE4C06"/>
<path d="M24.1766 66.682C24.935 65.8022 25.1834 65.9966 26.3303 66.039C25.8124 66.18 25.3621 66.2221 25.0624 66.6286C25.0524 67.4856 25.2268 67.4938 25.3154 68.1766C24.6025 68.3721 24.3828 68.4393 23.8562 67.9692C23.8096 67.1358 23.7683 67.4378 24.1766 66.682Z" fill="#D0690C"/>
<path d="M24.177 66.6822C23.9335 66.5395 23.8034 66.2875 23.6313 66.0416L23.7731 65.6902C24.493 65.2358 24.8324 65.3039 25.6353 65.2188C25.999 65.7906 26.1132 65.814 26.7409 66.037L26.3307 66.0392C25.1838 65.9968 24.9354 65.8024 24.177 66.6822Z" fill="#CE4C06"/>
<path d="M78.3492 33.2139L78.6641 33.4694C78.6693 33.9356 78.6768 34.4017 78.6867 34.8677C77.4867 34.3573 76.2923 35.0623 75.2603 35.7691C73.8552 36.7313 67.9918 37.3135 67.1844 37.8083L67.1656 37.8977C66.0894 38.3861 65.9341 39.8234 65.6376 40.945C65.3962 40.634 65.3242 40.4241 64.8577 40.4199C63.5185 40.4082 60.3137 41.25 59.3188 42.0201C59.4389 43.053 60.0141 45.7853 58.2929 45.8152C57.9239 45.8216 57.5712 45.7214 57.2661 45.5148L57.0452 45.4654C56.0799 45.7399 54.955 45.8277 54.2008 46.2821L54.0447 46.574L54.0932 46.7133L53.4473 47.1464L53.1482 46.8325C53.4534 46.5646 53.3647 46.7295 53.4102 46.3158L53.0451 46.0339C51.4206 45.9639 50.9191 46.2501 49.53 46.999C49.2283 47.7336 48.859 48.4466 48.9014 49.2332C49.0198 49.4487 49.0554 49.562 49.2287 49.7322L48.2366 50.37L47.8734 50.2126L47.8009 49.8919C48.3212 49.1112 48.977 47.8762 48.4058 47.0117C47.09 46.4414 43.7117 48.2876 42.1343 48.8381C42.4387 47.438 43.0218 46.9048 44.3796 46.3924L44.5423 46.3322L44.3124 46.2134C46.3384 45.0817 50.3255 43.8239 52.6872 42.9408C57.2848 41.2219 62.7025 37.9627 67.2273 36.6039C68.8573 36.1194 70.5116 35.471 72.224 34.9795C73.9922 34.4719 76.7206 33.8553 78.3492 33.2139Z" fill="#CD2E01"/>
<path d="M56.4939 43.9238C56.6131 44.6184 56.7409 44.8376 57.0453 45.4658C56.0799 45.7403 54.9551 45.8281 54.2008 46.2825L54.0448 46.5744L54.0933 46.7137L53.4474 47.1468L53.1483 46.8329C53.4534 46.565 53.3648 46.7299 53.4103 46.3162L53.0451 46.0342C52.5305 45.8991 52.4573 45.8831 52.1196 45.4778C52.1365 44.0848 55.457 43.9475 56.4939 43.9238Z" fill="#7D0000"/>
<path d="M56.494 43.9241C56.1061 43.0992 55.7414 42.6768 56.3385 41.7893C58.667 40.786 59.1601 44.4512 57.2662 45.5155L57.0453 45.4661C56.7409 44.8379 56.6131 44.6187 56.494 43.9241Z" fill="#D0690C"/>
<path d="M69.2703 76.1595C70.0267 75.1788 70.6168 74.3065 71.3207 73.2891L71.666 73.3504C71.5537 74.4925 69.9834 75.3848 70.303 76.1741L70.5637 75.9245L70.9607 75.9763C70.9825 77.4706 67.7079 81.3369 66.6473 82.4326C65.8393 83.2676 65.1117 83.5558 64.2518 84.2615C62.9736 85.4677 60.8735 87.7623 59.4475 88.6015C55.4903 90.9306 52.4324 92.582 48.0263 93.7972C43.6832 94.9952 40.2047 97.103 35.3642 96.8388C32.1824 96.8548 28.3957 95.6337 25.2568 96.2972C24.0969 96.5425 23.5628 97.0905 22.6876 97.3714C22.7192 97.1287 22.7387 96.9482 22.7541 96.7008L22.5718 96.4935C23.2054 96.1395 23.8386 95.7444 24.4606 95.3669C26.3228 94.3829 28.408 93.7693 30.5241 94.1813C32.5123 94.6704 39.3058 95.6987 41.1285 95.0938C41.499 94.8678 44.3823 94.24 45.1261 94.0069C46.0936 93.5277 46.6558 93.1888 47.5571 92.614C49.6956 92.2027 49.7135 91.4575 51.3925 90.0882C51.9027 89.6722 52.2499 89.8402 52.9028 89.9072C52.8985 90.803 52.7026 91.0308 52.2222 91.8085L52.2991 91.9431C54.5999 91.3352 54.3335 90.6198 55.3412 90.2847C58.7632 89.1471 63.1304 85.8851 64.8844 82.712C66.4588 79.8639 66.7123 78.9566 68.8747 76.1757L69.2703 76.1595Z" fill="#CF7D01"/>
<path d="M69.27 76.1595C70.0264 75.1788 70.6165 74.3065 71.3204 73.2891L71.6657 73.3504C71.5534 74.4925 69.9831 75.3848 70.3027 76.1741L70.5634 75.9245L70.9603 75.9763C70.9822 77.4706 67.7076 81.3369 66.647 82.4326C65.839 83.2676 65.1114 83.5558 64.2515 84.2615C65.8372 82.1526 67.504 78.7253 69.27 76.1595Z" fill="#D0690C"/>
<path d="M42.1341 48.8387C43.7115 48.2883 47.0898 46.4421 48.4056 47.0123C48.9768 47.8769 48.321 49.1119 47.8007 49.8926L47.8732 50.2133L48.2364 50.3706C46.8616 50.7327 44.6143 51.8691 43.9552 53.157L44.7172 53.1247L44.8129 53.3654C43.4244 53.7489 43.3957 54.2883 42.7994 55.5381L42.4789 55.7975C42.4629 56.4347 42.7831 56.5155 42.9946 57.0735L42.7254 57.238L41.6387 57.2095C41.2209 56.5581 41.0298 56.3844 40.3022 56.541C39.6739 56.5287 39.583 56.5166 38.9779 56.3494L38.9192 56.056L39.2627 55.7345L39.1979 55.5296L38.863 54.9373C36.0256 56.2434 36.0457 56.3101 34.4235 58.9006C33.9218 58.5172 33.8356 58.4587 33.4868 57.9134C33.5639 55.7786 36.8225 55.4613 38.0798 54.0504C38.4699 53.6125 38.7517 52.1682 39.1079 51.434L39.1643 51.3202C39.6119 51.0687 41.443 49.3513 42.1341 48.8387Z" fill="#7D0000"/>
<path d="M43.0679 53.0127C43.5557 53.1733 43.5297 53.2505 43.9554 53.157L44.7175 53.1247L44.8132 53.3654C43.4246 53.7489 43.396 54.2883 42.7997 55.538L42.4791 55.7975C42.4632 56.4347 42.7833 56.5155 42.9948 57.0734L42.7257 57.2379L41.639 57.2095C41.2211 56.5581 41.03 56.3844 40.3024 56.541C39.6742 56.5287 39.5833 56.5166 38.9782 56.3493L38.9194 56.0559L39.2629 55.7345C39.6419 55.7088 40.0054 55.5195 40.3636 55.3697C40.8872 54.7456 40.7388 54.99 40.8756 54.1482C41.1642 53.7206 42.0391 53.5475 42.5485 53.4017C42.6412 53.242 42.89 53.1245 43.0679 53.0127Z" fill="#380400"/>
<path d="M42.5487 53.4014L42.8322 53.7124C42.6337 54.4616 41.6357 55.0605 40.9996 55.4438L40.3638 55.3693C40.8874 54.7453 40.739 54.9896 40.8758 54.1479C41.1644 53.7203 42.0392 53.5471 42.5487 53.4014Z" fill="#471001"/>
<path d="M38.8633 54.937C39.7644 53.7433 41.3054 52.7875 42.8089 52.6406L43.0679 53.0124C42.89 53.1242 42.6413 53.2417 42.5486 53.4014C42.0391 53.5472 41.1643 53.7203 40.8757 54.1479C40.7389 54.9897 40.8872 54.7453 40.3636 55.3694C40.0054 55.5192 39.6419 55.7085 39.263 55.7342L39.1982 55.5293L38.8633 54.937Z" fill="#380400"/>
<path d="M39.1982 55.5298C39.667 54.7352 40.0734 54.5121 40.8757 54.1484C40.739 54.9902 40.8873 54.7458 40.3637 55.3699C40.0055 55.5197 39.642 55.709 39.2631 55.7347L39.1982 55.5298Z" fill="#5F1601"/>
<path d="M60.387 77.709L61.6753 77.8184L62.9507 78.1443C63.7369 78.0545 63.9159 78.2833 64.5689 78.6723C64.1254 79.9349 64.1206 80.4265 63.2783 81.4895C62.5997 82.3945 61.7508 83.474 60.6733 83.91L60.5961 84.3665C60.1359 84.9868 59.2196 85.762 58.5942 86.2511C58.1316 84.8945 58.6926 84.5526 56.7585 84.0365C56.7049 83.3215 56.7809 83.1909 57.2481 82.7213L57.4604 82.7745C57.9959 82.6513 58.0995 82.6447 58.4786 82.2566C58.9669 80.9696 57.7161 79.3589 58.6611 78.0905C59.2752 77.8248 59.1245 77.9166 59.9053 78.1145L60.387 77.709Z" fill="#380400"/>
<path d="M60.3872 77.709L61.6755 77.8184L62.9509 78.1443C63.7371 78.0545 63.9161 78.2833 64.5691 78.6723C64.1256 79.9349 64.1208 80.4265 63.2785 81.4895C62.5665 80.8852 60.9947 81.0087 59.5506 80.5172C59.3523 79.7704 59.2881 79.6266 59.4904 78.8856L59.9055 78.1145L60.3872 77.709Z" fill="#5F1601"/>
<path d="M60.3872 77.709L61.6755 77.8184L62.9509 78.1443C62.5408 79.4021 60.8403 80.4846 59.5506 80.5172C59.3523 79.7704 59.2881 79.6266 59.4904 78.8856L59.9055 78.1145L60.3872 77.709Z" fill="#B85420"/>
<path d="M60.3866 77.709L61.6749 77.8184C61.3007 78.3674 60.9523 78.984 60.3862 79.3121L59.9386 79.3263L59.4897 78.8856L59.9049 78.1145L60.3866 77.709Z" fill="#CE4C06"/>
<path d="M34.4241 58.9007C36.0463 56.3102 36.0261 56.2436 38.8636 54.9375L39.1984 55.5298L39.2632 55.7347L38.9197 56.0561L38.9785 56.3495C39.5836 56.5168 39.6745 56.5289 40.3027 56.5412C39.8761 57.1594 39.7777 57.1946 39.0646 57.4509C38.6666 57.7817 38.084 58.1372 38.0557 58.678C37.7422 59.5832 37.3533 59.5986 37.1146 60.1128L37.5911 60.3006C37.4945 61.1986 37.6393 60.9373 37.1165 61.6121L36.4851 62.4353C36.2068 62.4751 35.6876 62.2515 35.3944 62.1492C35.1862 62.3093 34.7075 62.6998 34.5041 62.8078L34.2072 62.6464L33.7334 62.8047L33.5984 62.611C33.9129 62.351 33.9574 62.327 34.351 62.2203L34.5148 62.0213C33.989 61.4619 33.6287 62.0125 33.4947 61.478C34.1602 60.6513 34.2032 59.9797 33.3291 59.3577C32.6416 59.285 32.8782 59.2244 32.3386 59.4917C31.3902 61.1419 30.4759 62.1985 28.9948 63.3981C27.3992 64.6904 28.0835 64.3889 28.2335 66.0271L26.9413 66.022L26.7409 66.0374C26.1131 65.8143 25.999 65.791 25.6353 65.2191C27.0592 64.5494 29.8664 62.5667 30.734 61.2397C31.3316 60.3258 31.6558 59.4695 32.4297 58.488C33.0936 58.5007 34.0293 59.5488 34.5522 60.0495L34.7327 59.9136C34.7804 59.2509 34.8423 59.5191 34.4241 58.9007Z" fill="#5F1601"/>
<path d="M35.3942 62.1487L35.3738 61.857L34.855 61.4487C34.8671 60.7332 35.2631 60.4444 35.7797 59.8887C36.2376 60.1521 36.6177 60.5347 37.1145 60.1123L37.5909 60.3001C37.4943 61.1981 37.6392 60.9368 37.1163 61.6115L36.4849 62.4348C36.2066 62.4746 35.6874 62.251 35.3942 62.1487Z" fill="#CE4C06"/>
<path d="M35.7798 59.8884C36.138 59.0224 38.0677 56.3779 39.0645 57.4501C38.6664 57.7809 38.0839 58.1364 38.0556 58.6773C37.742 59.5824 37.3532 59.5978 37.1145 60.112C36.6177 60.5345 36.2377 60.1519 35.7798 59.8884Z" fill="#D0690C"/>
<path d="M65.305 76.3833C65.6962 75.3302 67.3365 75.0124 68.1131 72.8876C68.9695 70.5439 67.7123 71.5358 68.096 69.515C68.1549 69.2047 68.3749 69.1645 68.615 69.0771C69.9648 69.3204 70.32 69.7607 71.0847 70.7827C70.681 71.4 68.8392 75.048 68.8887 75.0065C65.8029 77.5913 65.1216 81.8441 62.4841 84.7561C62.2318 84.9106 61.8123 85.1412 61.6201 85.3456C61.1842 84.5635 61.4211 84.8161 60.5962 84.3665L60.6733 83.9101C61.7508 83.474 62.5998 82.3945 63.2783 81.4896C64.1206 80.4265 64.1254 79.9349 64.569 78.6723C65.0325 77.8959 65.1994 77.2645 65.305 76.3833Z" fill="#D0690C"/>
<path d="M46.3957 87.0501C47.6039 85.8918 49.4995 88.1494 50.3896 89.0301C49.5324 90.1671 48.4958 91.5485 47.5571 92.6139C46.6558 93.1887 46.0937 93.5276 45.1261 94.0068C44.5333 92.6194 45.6529 91.2402 43.8619 90.2547C43.4338 90.0193 43.5346 89.2152 43.5221 88.7505L43.6192 88.7689L43.9264 88.351L44.2561 88.358L44.6985 89.0483C45.0171 88.7345 44.9646 88.5649 45.0711 88.0675C45.3784 87.7903 45.6571 87.5079 45.9494 87.216L46.359 87.303L46.3957 87.0501Z" fill="#471001"/>
<path d="M46.3951 87.0498C46.9349 87.4667 47.1157 87.959 47.4005 88.5751C47.2617 90.3108 45.1654 90.6736 43.9776 89.8639C43.6605 89.3956 43.6377 89.3335 43.6187 88.7686L43.9258 88.3507L44.2555 88.3577L44.698 89.048C45.0165 88.7343 44.964 88.5646 45.0705 88.0673C45.3778 87.7901 45.6565 87.5077 45.9488 87.2158L46.3584 87.3028L46.3951 87.0498Z" fill="#A84503"/>
<path d="M45.9487 87.2158L46.3583 87.3028C46.6723 88.1176 46.4552 89.172 45.623 89.588C44.9468 89.2401 45.0579 88.7754 45.0704 88.0673C45.3777 87.7901 45.6564 87.5077 45.9487 87.2158Z" fill="#CE4C06"/>
<path d="M68.3918 51.0605L68.4227 50.3721L68.6358 50.8316L68.7748 50.8415C69.8092 50.9206 70.288 51.4958 70.8626 51.5282C71.3045 51.6477 71.5118 51.6767 71.9067 51.9326L72.3703 51.5122L72.6002 50.6976C73.517 50.2461 74.5833 51.4885 75.3302 52.0947L75.2729 53.0386L75.1216 54.2731C74.4052 54.7221 71.8186 55.5404 70.9785 55.5068L70.7677 55.2013C70.3822 55.2681 70.2267 55.3432 69.8606 55.4888L69.393 55.1754L69.0476 54.2626C69.0348 53.9566 68.9329 53.3679 68.8873 53.0408C68.5346 52.5585 68.3691 52.4658 67.8979 52.1333C67.9527 51.8757 68.2593 51.4626 68.4146 51.2249L68.3918 51.0605Z" fill="#380400"/>
<path d="M68.3921 51.0605L68.4229 50.3721L68.6361 50.8316L68.7751 50.8415C69.8094 50.9206 70.2882 51.4958 70.8629 51.5282C71.3048 51.6477 71.5121 51.6767 71.907 51.9326C70.8906 52.9809 68.5966 52.6773 68.3921 51.0605Z" fill="#5F1601"/>
<path d="M67.6584 62.9163C67.8954 62.807 68.134 62.702 68.3749 62.6014C69.4304 62.1606 70.1092 62.7709 70.9843 63.3152C72.1408 63.0059 72.1502 63.0809 73.1138 63.8181C73.6547 63.8992 73.9433 63.9067 74.4152 64.2064C74.236 64.68 73.3773 66.672 73.3799 66.9193C73.3459 66.8692 73.3118 66.8191 73.2778 66.769C69.9883 63.2137 67.6637 67.0901 65.3486 66.6685C64.7297 66.2426 64.9375 66.4703 64.5918 65.7458C64.6419 65.036 64.5898 65.2718 65.1978 64.6681C66.0622 63.8555 66.6558 63.5105 67.6584 62.9163Z" fill="#5F1601"/>
<path d="M67.6583 62.916C68.311 63.1338 68.3982 63.1653 68.8496 63.6888C69.0343 64.7652 68.4501 65.1239 67.7392 65.866C66.9588 65.5647 65.6485 65.2131 65.1978 64.6679C66.0621 63.8553 66.6557 63.5103 67.6583 62.916Z" fill="#B85420"/>
<path d="M70.9844 63.3143C72.1408 63.0049 72.1502 63.08 73.1139 63.8171C72.168 64.3589 73.1603 64.2253 72.2064 64.898C71.6442 64.5873 71.3664 63.9234 70.9844 63.3143Z" fill="#380400"/>
<path d="M60.5963 84.3662C61.4212 84.8158 61.1844 84.5632 61.6202 85.3453C61.8124 85.141 62.232 84.9104 62.4842 84.7558C61.3884 86.4419 57.1618 89.2421 55.0826 89.8584C54.7806 89.948 53.313 89.9159 52.9028 89.9065C52.25 89.8395 51.9028 89.6715 51.3926 90.0875C49.7136 91.4568 49.6956 92.202 47.5571 92.6132C48.4958 91.5478 49.5324 90.1665 50.3896 89.0295C50.7979 88.5646 51.1618 88.1574 51.529 87.6573C51.9852 88.3155 52.5217 89.0506 52.9206 89.735C54.3158 89.386 52.9924 89.095 54.0989 87.4959C54.57 87.4212 55.3015 87.2323 55.7891 87.1231C56.9375 86.7476 57.1126 87.0548 58.4595 86.3435L58.5944 86.2508C59.2197 85.7617 60.1361 84.9866 60.5963 84.3662Z" fill="#D0690C"/>
<path d="M55.7889 87.1233C56.9373 86.7478 57.1124 87.055 58.4593 86.3438C58.278 86.8664 58.0899 87.3884 57.9323 87.9186L56.0558 89.47C55.0248 89.5829 53.9544 89.7267 52.9204 89.7353C54.3155 89.3863 52.9922 89.0953 54.0987 87.4962C54.5698 87.4215 55.3013 87.2325 55.7889 87.1233Z" fill="#CE4C06"/>
<path d="M60.5959 84.3662C61.4208 84.8158 61.1839 84.5632 61.6198 85.3453C60.7868 86.3316 59.0943 87.2132 57.9321 87.9184C58.0897 87.3882 58.2778 86.8662 58.459 86.3435L58.594 86.2508C59.2193 85.7617 60.1356 84.9866 60.5959 84.3662Z" fill="#CE4C06"/>
<path d="M75.2731 53.0391C75.3704 53.2647 76.261 57.2847 76.2882 57.6164L76.0827 58.8215C75.0917 58.6405 74.4715 58.6043 73.5121 58.8682C72.9077 59.6101 71.9008 60.0055 71.033 59.4228C70.6709 59.1428 70.5803 59.1494 70.1222 59.0384C69.8685 58.1198 69.9573 57.9043 70.1211 56.9379C70.4088 56.6193 70.7644 56.028 71.0093 55.6522L70.9786 55.5073C71.8188 55.5409 74.4054 54.7226 75.1218 54.2735L75.2731 53.0391Z" fill="#CE4C06"/>
<path d="M75.273 53.0391C75.3703 53.2647 76.2609 57.2847 76.288 57.6164L76.0826 58.8215C75.0916 58.6405 74.4714 58.6043 73.5119 58.8682C73.8854 57.5533 74.3109 57.5606 74.5821 56.5907L74.3599 56.3173L73.6759 56.2571C72.6648 55.692 72.161 55.6951 71.0092 55.6522L70.9785 55.5073C71.8186 55.5409 74.4053 54.7226 75.1217 54.2735L75.273 53.0391Z" fill="#5F1601"/>
<path d="M73.6759 56.2568L74.36 56.317L74.5821 56.5904C74.3109 57.5603 73.8854 57.553 73.5119 58.8679C72.9076 59.6098 71.9007 60.0053 71.0329 59.4225C70.6708 59.1426 70.5801 59.1492 70.1221 59.0381C71.1607 58.6313 70.9075 58.2027 72.0287 58.1244C73.0263 57.6152 73.2244 57.2773 73.6759 56.2568Z" fill="#78350B"/>
<path d="M70.1222 59.038C69.8685 58.1195 69.9573 57.9039 70.1211 56.9375C70.4534 57.1523 71.7501 58.0277 72.0288 58.1243C70.9076 58.2026 71.1608 58.6312 70.1222 59.038Z" fill="#A84503"/>
<path d="M40.3024 56.5402C41.0299 56.3836 41.2211 56.5573 41.6389 57.2087C41.8669 57.97 42.3671 58.1094 43.1216 58.6563L43.4058 58.8917C43.8129 59.2737 43.9482 59.3609 44.0754 59.9137C43.6507 60.9514 41.6349 61.0337 40.6923 60.8479L39.8814 61.1581C38.7653 61.4915 38.3001 61.6694 37.1161 61.6111C37.639 60.9363 37.4941 61.1976 37.5907 60.2996L37.1143 60.1118C37.3529 59.5976 37.7418 59.5822 38.0554 58.677C38.0836 58.1362 38.6662 57.7807 39.0642 57.4499C39.7773 57.1936 39.8757 57.1584 40.3024 56.5402Z" fill="#471001"/>
<path d="M39.0864 58.2096C39.6688 58.0117 39.4196 58.017 40.0288 58.2122C40.5168 58.7516 40.7226 60.2064 40.6923 60.8486L39.8814 61.1589C38.7653 61.4923 38.3001 61.6702 37.1161 61.6118C37.639 60.9371 37.4941 61.1983 37.5907 60.3004L37.1143 60.1126C37.3529 59.5983 37.7418 59.5829 38.0554 58.6778L39.0864 58.2096Z" fill="#B85420"/>
<path d="M38.0554 58.6772L39.0864 58.209C39.4703 58.6265 39.3592 58.5516 39.4641 59.1976C39.3383 59.7756 39.1602 59.8637 38.708 60.219C38.2022 60.3535 38.0994 60.3989 37.5907 60.2998L37.1143 60.1119C37.3529 59.5977 37.7418 59.5823 38.0554 58.6772Z" fill="#D0690C"/>
<path d="M47.442 52.1113C48.2522 52.3188 48.1066 52.1686 48.6717 52.6946C48.9561 53.5432 48.8621 53.9667 49.0879 54.6697C48.0306 55.6569 46.8306 55.3679 45.9641 55.8495C44.2304 56.9345 44.2506 56.9892 43.4059 58.8922L43.1217 58.6568L43.3664 58.2544C43.1523 57.8095 43.0089 57.6291 42.7257 57.2376L42.9948 57.0731C42.7833 56.5152 42.4631 56.4344 42.4791 55.7972L42.7996 55.5377C43.396 54.288 43.4246 53.7486 44.8131 53.3651L44.7175 53.1244L45.6299 52.4783C46.0269 52.171 46.8978 52.1635 47.442 52.1113Z" fill="#471001"/>
<path d="M45.6301 52.4783C46.027 52.171 46.898 52.1635 47.4422 52.1113C47.8951 52.8051 48.0934 52.8481 48.0853 53.5371L47.7052 53.892C47.0649 54.028 46.1746 54.1334 45.8264 54.6613C45.3655 54.9266 44.9284 55.2084 44.416 55.3512L43.7158 55.7522L42.7998 55.5377C43.3961 54.288 43.4248 53.7486 44.8133 53.3651L44.7176 53.1244L45.6301 52.4783Z" fill="#B85420"/>
<path d="M45.6304 52.4783C46.0273 52.171 46.8983 52.1635 47.4424 52.1113C47.8954 52.8051 48.0936 52.8481 48.0856 53.5371L47.7055 53.892C46.5869 53.2373 46.6192 53.4694 45.6304 52.4783Z" fill="#5F1601"/>
<path d="M42.9948 57.0735C42.7833 56.5155 42.4631 56.4348 42.4791 55.7975L42.7996 55.5381L43.7156 55.7525C43.6278 56.3391 43.8362 56.804 43.4894 57.1759L42.9948 57.0735Z" fill="#471001"/>
<path d="M26.7405 66.0369L26.941 66.0215L28.2331 66.0266L29.3354 66.3507L29.6587 66.7672C30.0411 67.1403 30.689 67.7353 31.0204 68.1159C31.0164 68.9092 31.1792 69.623 30.9114 70.214L30.4946 70.3897C29.7007 70.2291 29.1557 70.1378 28.3513 70.0561L26.9309 69.3992C26.2049 68.9788 25.8449 68.8189 25.3154 68.1767C25.2267 67.4939 25.0523 67.4856 25.0624 66.6286C25.3621 66.2222 25.8124 66.1801 26.3303 66.0391L26.7405 66.0369Z" fill="#CF7D01"/>
<path d="M31.0202 68.1162C31.0161 68.9095 31.179 69.6233 30.9111 70.2143L30.4943 70.39C29.7005 70.2294 29.1554 70.1381 28.3511 70.0564C28.6547 69.4888 28.9426 69.0017 29.279 68.4526L30.095 68.8667C30.7167 68.734 30.5419 68.7531 31.0202 68.1162Z" fill="#B85420"/>
<path d="M29.6588 66.7676C30.0412 67.1406 30.6891 67.7357 31.0205 68.1162C30.5423 68.7531 30.717 68.734 30.0954 68.8668L29.2793 68.4526L29.3006 67.9751L28.8115 67.4625L29.6588 66.7676Z" fill="#D0690C"/>
<path d="M26.9409 66.0215L28.233 66.0266L29.3353 66.3507L29.6587 66.7672L28.8114 67.4621C28.2758 67.3457 27.5607 66.4884 26.9409 66.0215Z" fill="#CE4C06"/>
<path d="M53.045 46.0336L53.4102 46.3156C53.3646 46.7293 53.4533 46.5644 53.1482 46.8323L53.4473 47.1462C52.573 47.842 52.002 48.5898 52.5978 49.7729L53.0165 49.9133C52.6448 50.1013 52.1828 50.3633 51.7907 50.4665L51.6901 50.9536L51.5074 51.6492L51.2091 51.8027C50.4119 51.6435 49.6959 50.414 49.2286 49.732C49.0553 49.5618 49.0197 49.4485 48.9013 49.2329C48.8589 48.4464 49.2283 47.7334 49.5299 46.9988C50.919 46.2499 51.4206 45.9637 53.045 46.0336Z" fill="#D0690C"/>
<path d="M53.1483 46.833L53.4473 47.147C52.5731 47.8428 52.0021 48.5906 52.5978 49.7736L53.0166 49.9141C52.6448 50.1021 52.1829 50.3641 51.7908 50.4672C51.8818 49.8755 51.7856 48.9227 51.7456 48.2911C52.2979 47.5857 52.4581 47.3926 53.1483 46.833Z" fill="#5F1601"/>
<path d="M49.2289 49.7324C49.6962 50.4145 50.4122 51.644 51.2094 51.8032L51.5077 51.6497L51.6904 50.9541C52.1545 50.9992 52.9012 51.0414 53.3238 51.1734C52.1897 51.5847 52.3724 51.0717 52.0102 51.4841C51.9542 52.4481 52.1242 52.5344 51.061 52.8295C50.4429 53.9018 51.7923 54.4798 50.2484 54.995C49.7048 54.8549 49.6459 54.8231 49.2287 54.4475L49.0881 54.6696C48.8623 53.9666 48.9563 53.5431 48.6719 52.6945C48.1068 52.1685 48.2524 52.3187 47.4422 52.1112C46.898 52.1634 46.0271 52.1709 45.6301 52.4782L44.7177 53.1243L43.9556 53.1566C44.6147 51.8687 46.862 50.7323 48.2368 50.3702L49.2289 49.7324Z" fill="#380400"/>
<path d="M20.6606 86.3477C21.1655 86.456 21.3443 86.4424 21.6768 86.8314C21.9583 87.2528 22.3554 87.767 22.4852 88.2372C23.1507 89.2027 23.425 89.9701 24.3259 90.6568C24.3448 91.2606 24.3099 95.1198 24.4607 95.3669C23.8387 95.7443 23.2054 96.1394 22.5719 96.4934C22.4881 96.4108 22.391 96.315 22.2803 96.2059C22.5693 93.7659 22.8197 92.1116 22.1142 89.7687C21.4853 89.2113 20.7504 87.299 20.6606 86.3477Z" fill="#CD2E01"/>
<path d="M20.6606 86.3477C21.1655 86.456 21.3443 86.4424 21.6768 86.8314C21.9583 87.2528 22.3554 87.767 22.4852 88.2372C22.6126 88.9551 22.816 89.3323 22.5489 89.8796L22.2423 89.7025L22.1142 89.7687C21.4853 89.2113 20.7504 87.299 20.6606 86.3477Z" fill="#CE4C06"/>
<path d="M64.6337 52.4564C65.3697 51.964 67.0472 52.0301 67.8978 52.1341C68.3689 52.4665 68.5345 52.5593 68.8872 53.0416C68.9327 53.3687 69.0346 53.9573 69.0475 54.2634L69.3928 55.1762C69.4038 55.9987 69.4642 56.4516 68.9715 57.1441C68.2949 56.8113 67.7087 56.3585 67.0983 55.9172C66.6442 55.5232 66.0487 54.7137 65.6556 54.2167L65.4753 54.071L64.5942 52.8122L64.6337 52.4564Z" fill="#CE4C06"/>
<path d="M64.6337 52.4564C65.3697 51.964 67.0472 52.0301 67.8978 52.1341C68.3689 52.4665 68.5345 52.5593 68.8872 53.0416C67.9635 54.6107 67.1858 53.7181 65.6556 54.2167L65.4753 54.071L64.5942 52.8122L64.6337 52.4564Z" fill="#D0690C"/>
<path d="M69.0474 54.2627L69.3927 55.1755C69.4037 55.998 69.4641 56.451 68.9714 57.1435C68.2948 56.8106 67.7086 56.3579 67.0981 55.9165C67.7554 55.5132 68.5568 54.8524 69.0474 54.2627Z" fill="#5F1601"/>
<path d="M37.116 61.6111C38.3 61.6695 38.7652 61.4916 39.8813 61.1582C39.4579 62.1063 39.2275 62.6484 39.0878 63.7111L39.407 64.0483C39.3511 64.3149 39.287 64.6669 39.0981 64.874C37.3971 66.7402 35.7273 64.5205 34.4243 63.4263L34.5036 62.8069C34.707 62.6989 35.1857 62.3084 35.3939 62.1483C35.6871 62.2506 36.2063 62.4742 36.4846 62.4344L37.116 61.6111Z" fill="#CF7D01"/>
<path d="M37.1162 61.6111C38.3002 61.6695 38.7655 61.4916 39.8815 61.1582C39.4582 62.1063 39.2278 62.6484 39.088 63.7111C38.4471 63.6593 37.0962 62.7982 36.4849 62.4344L37.1162 61.6111Z" fill="#471001"/>
<path d="M54.3382 84.4763C55.2432 83.8592 56.2314 82.5206 56.9599 82.4277L57.248 82.7213C56.7808 83.1909 56.7047 83.3215 56.7584 84.0366C58.6925 84.5526 58.1315 84.8945 58.5941 86.2511L58.4592 86.3438C57.1123 87.055 56.9372 86.7479 55.7888 87.1233C55.3012 87.2326 54.5697 87.4215 54.0986 87.4962C54.269 86.5257 54.2903 85.4662 54.3382 84.4763Z" fill="#A84503"/>
<path d="M54.3382 84.4763C55.2432 83.8592 56.2314 82.5206 56.9599 82.4277L57.248 82.7213C56.7808 83.1909 56.7047 83.3215 56.7584 84.0366C56.3186 84.1561 55.8804 84.2815 55.444 84.4128L55.3423 84.6523C55.8143 84.9856 56.19 85.1939 56.5079 85.674L56.344 85.9006C55.6638 85.733 55.3032 85.5527 54.6698 85.2641L54.4899 85.5562L54.6009 85.2575C54.5099 85.8547 54.5341 85.675 54.8776 86.3005C55.4714 86.6796 55.5081 86.5777 55.7888 87.1233C55.3012 87.2326 54.5697 87.4215 54.0986 87.4962C54.269 86.5257 54.2903 85.4662 54.3382 84.4763Z" fill="#5F1601"/>
<path d="M46.2698 82.9363C45.8659 81.485 45.672 81.6762 44.1577 80.7984C45.1838 80.0682 48.3892 81.7648 49.6169 80.8401C49.7469 80.7422 49.974 80.8223 50.1151 80.863L50.0608 81.027L49.3329 81.1542L49.3086 81.4037C49.94 82.0518 50.4552 82.338 50.5556 83.1076L50.3327 83.395C49.7235 83.6109 49.3272 83.6904 48.9242 84.1927L47.7371 84.7246C47.0893 84.0322 46.8969 83.7258 46.3893 82.9141L46.2698 82.9363Z" fill="#380400"/>
<path d="M47.2357 81.8535C48.3343 82.1801 48.8822 83.0739 48.924 84.1929L47.7369 84.7247C47.0892 84.0324 46.8968 83.726 46.3892 82.9143C46.5393 82.6397 47.0132 82.1157 47.2357 81.8535Z" fill="#D0690C"/>
<path d="M47.2358 81.8531C48.7198 81.2142 49.8517 81.9141 50.3327 83.3947C49.7235 83.6107 49.3272 83.6901 48.9242 84.1925C48.8823 83.0734 48.3345 82.1797 47.2358 81.8531Z" fill="#A84503"/>
<path d="M29.3354 66.3501C32.2485 65.4516 33.4307 67.4211 33.8726 69.8909L33.8889 69.2177C33.9633 69.9049 34.0187 70.0775 33.6943 70.6931L33.3457 70.904C32.8219 70.7402 32.2805 70.5719 31.7385 70.463C31.2204 70.3587 30.885 70.6472 30.4947 70.3892L30.9114 70.2135C31.1793 69.6225 31.0164 68.9087 31.0205 68.1154C30.6891 67.7348 30.0412 67.1398 29.6588 66.7667L29.3354 66.3501Z" fill="#400200"/>
<path d="M59.8296 55.3321C60.2407 53.8081 62.2646 51.1534 63.8066 50.8818C64.4527 51.2222 63.76 51.4897 64.6339 52.4558L64.5944 52.8116L64.0679 53.5566C63.3546 53.6578 61.329 55.0055 60.3896 55.4653L60.1059 55.6652L59.8296 55.3321Z" fill="#D0690C"/>
<path d="M46.2694 82.9363L46.3889 82.9141C46.8966 83.7257 47.089 84.0322 47.7367 84.7245C47.0479 85.1642 46.9836 85.1892 46.1571 84.9009C46.4178 85.4451 46.6698 85.6887 46.5448 86.153C44.8398 86.079 45.3008 84.7129 44.1941 84.3369C43.7004 84.6208 43.5937 84.9178 43.3266 85.4095C43.3639 86.5801 44.8023 87.6947 45.9489 87.216C45.6566 87.5079 45.3779 87.7903 45.0706 88.0675C44.9641 88.5649 45.0166 88.7345 44.698 89.0483L44.2556 88.358L43.9258 88.351L43.6187 88.7689L43.5216 88.7505C43.0565 87.6917 42.4492 84.8535 43.8572 84.3408C44.3118 84.1752 45.1576 83.9901 45.6549 83.877C46.0643 83.5117 46.1009 83.4582 46.2694 82.9363Z" fill="#380400"/>
<path d="M30.5239 94.1806C31.3718 94.1254 33.4344 94.204 33.9825 93.8175C34.1492 92.7974 33.7682 93.2122 34.4526 92.6074C37.6009 94.3754 37.6608 94.2309 41.1283 95.0931C39.3056 95.698 32.5121 94.6697 30.5239 94.1806Z" fill="#CD2E01"/>
<path d="M59.3857 56.6253C59.1667 56.2124 59.0083 55.9569 58.7467 55.5693L59.0132 55.091L58.7173 55.0058L58.9269 54.9414C59.2587 55.1703 59.4309 55.2629 59.8295 55.3323L60.1058 55.6653L60.3895 55.4654L60.7647 55.7222C61.4802 55.6963 61.9351 55.6506 62.639 55.8034C62.9091 56.0567 62.9801 56.0975 63.1467 56.4208C62.7738 57.1702 62.4989 57.3577 61.86 57.9162C61.2881 58.2727 60.9441 58.5294 60.2868 58.693L60.0026 58.4539C59.8552 57.6874 59.8115 57.4895 59.4651 56.7847L59.3857 56.6253Z" fill="#A84503"/>
<path d="M60.7649 55.7224C61.4804 55.6965 61.9353 55.6508 62.6392 55.8036C62.9093 56.0569 62.9803 56.0977 63.1469 56.421C62.3783 56.9762 61.3353 57.0017 60.6665 56.298L60.7649 55.7224Z" fill="#B85420"/>
<path d="M64.0679 53.5566C64.5739 54.4618 65.1187 56.1207 64.0338 56.8758C63.463 57.2012 62.4709 57.8555 61.8602 57.9161C62.4991 57.3576 62.774 57.1701 63.1469 56.4207C62.9803 56.0974 62.9093 56.0566 62.6392 55.8033C61.9353 55.6505 61.4804 55.6962 60.7649 55.7221L60.3896 55.4653C61.3291 55.0056 63.3547 53.6578 64.0679 53.5566Z" fill="#5F1601"/>
<path d="M64.5946 52.8115L65.4757 54.0702L64.8452 53.7174L64.6607 53.829C66.9204 57.083 66.2328 58.4043 62.3481 59.0976C62.732 58.522 63.5439 57.5675 64.0339 56.8757C65.1188 56.1206 64.574 54.4617 64.0681 53.5565L64.5946 52.8115Z" fill="#471001"/>
<path d="M34.4245 63.4268C35.7275 64.521 37.3973 66.7406 39.0983 64.8744C39.2872 64.6673 39.3513 64.3154 39.4073 64.0488L39.7321 64.14C39.5699 65.024 39.6764 65.2153 39.1526 65.8399C37.7379 66.3593 37.2921 65.9387 36.3605 67.0263L35.5819 67.1508C34.6581 65.9631 34.3766 64.9388 34.4245 63.4268Z" fill="#D0690C"/>
<path d="M39.7324 64.1396C40.6779 64.183 41.1469 64.4101 42.0051 64.8364C41.7231 64.9912 41.3799 65.1795 40.9758 65.4015C40.175 67.1264 40.4273 67.3584 38.2392 67.1622C37.722 66.9991 37.1316 67.2602 36.3608 67.0259C37.2924 65.9383 37.7382 66.3589 39.1529 65.8395C39.6767 65.215 39.5702 65.0237 39.7324 64.1396Z" fill="#CE4C06"/>
<path d="M66.6525 49.4334C66.4752 49.9866 66.5369 50.1272 66.133 50.4215L65.9009 50.1795C65.6496 48.7921 65.9655 44.0548 66.988 43.2031C67.5865 45.4951 66.9779 47.0426 66.6525 49.4334Z" fill="#471001"/>
<path d="M59.3862 56.625L59.4655 56.7844C59.812 57.4892 59.8557 57.6871 60.0031 58.4536L60.2873 58.6926C60.9446 58.529 61.2886 58.2724 61.8605 57.9158C62.4712 57.8553 63.4633 57.2009 64.0341 56.8756C63.5441 57.5674 62.7322 58.5219 62.3483 59.0975C61.9171 59.8177 60.8117 60.4101 59.9645 60.0345C59.4435 59.3198 59.496 57.6647 59.3862 56.625Z" fill="#471001"/>
<path d="M42.0046 64.8369C42.3318 65.4881 42.4188 65.6313 42.8841 66.1905C42.9995 66.9758 42.755 67.0786 42.2055 67.6397C40.9422 67.5455 39.4395 67.4869 38.2388 67.1627C40.4268 67.3589 40.1746 67.1269 40.9754 65.402C41.3795 65.1801 41.7226 64.9917 42.0046 64.8369Z" fill="#5F1601"/>
<path d="M65.3051 76.3828C65.1996 77.2641 65.0327 77.8954 64.5691 78.6719C63.9161 78.2828 63.7371 78.0541 62.9509 78.1439L61.6755 77.818L60.3872 77.7085L60.5405 77.5971C62.0572 77.5051 63.2463 76.4917 65.3051 76.3828Z" fill="#471001"/>
<path d="M53.4476 47.147L54.0935 46.7139L54.5829 47.3812C54.3918 48.0525 53.7041 49.3002 53.2605 49.8311L53.0169 49.9141L52.5981 49.7736C52.0023 48.5906 52.5733 47.8428 53.4476 47.147Z" fill="#D0690C"/>
<path d="M69.393 55.1758L69.8606 55.4892C70.2267 55.3436 70.3822 55.2685 70.7678 55.2017L70.9785 55.5072L71.0092 55.652C70.7643 56.0278 70.4087 56.6192 70.121 56.9377C69.9572 57.9042 69.8684 58.1197 70.1221 59.0382C70.5802 59.1493 70.6708 59.1427 71.0329 59.4227L69.9732 59.5178C69.1683 58.7355 70.5376 58.3453 68.9717 57.1437C69.4644 56.4512 69.4041 55.9983 69.393 55.1758Z" fill="#471001"/>
<path d="M54.5827 47.3809C55.3778 48.4303 55.5019 48.6163 55.0966 49.891C54.3282 50.0204 54.0361 49.9479 53.2603 49.8307C53.7038 49.2998 54.3916 48.0521 54.5827 47.3809Z" fill="#5F1601"/>
<path d="M55.0963 49.8913C54.5265 50.6016 54.2615 50.9987 53.3234 51.1737C52.9007 51.0417 52.1541 50.9994 51.6899 50.9543L51.7906 50.4672C52.1827 50.364 52.6446 50.102 53.0164 49.914L53.26 49.8311C54.0359 49.9482 54.328 50.0207 55.0963 49.8913Z" fill="#471001"/>
<path d="M34.7267 85.4441C36.0132 84.1516 37.7639 84.2204 39.4671 84.5957C40.4238 85.4474 42.2293 86.5655 41.6086 88.1308L41.3091 88.2211C40.3041 87.5743 39.5477 85.8287 38.9633 85.6016C38.3641 87.2532 39.0698 86.8893 38.9323 87.4568C38.4687 89.3715 36.235 90.8223 34.4337 89.9528C34.1352 90.2221 34.1135 90.3401 33.9426 90.7161C33.612 90.5518 33.6101 90.4977 33.4256 90.1565C34.0801 87.5508 32.5249 88.6349 30.6267 87.2479L30.187 86.899C31.4601 86.3279 31.2785 86.5199 31.9706 85.4351C33.2741 85.1623 33.4491 85.109 34.7267 85.4441Z" fill="#5F1601"/>
<path d="M39.4668 84.5957C40.4235 85.4474 42.229 86.5655 41.6083 88.1308L41.3088 88.2211C40.3038 87.5743 39.5474 85.8287 38.963 85.6016C38.3638 87.2532 39.0695 86.8893 38.932 87.4568C38.4684 89.3715 36.2346 90.8223 34.4334 89.9528C34.1349 90.2221 34.1132 90.3402 33.9423 90.7162C33.6116 90.5519 33.6098 90.4977 33.4253 90.1566C33.6419 89.9548 33.9072 89.7589 34.1428 89.5761C35.6165 89.6434 38.2026 89.185 38.6447 87.5119C37.7095 86.0006 38.6102 85.5886 39.4668 84.5957Z" fill="#380400"/>
<path d="M31.9706 85.4347C33.2741 85.1619 33.4491 85.1086 34.7267 85.4437C34.2382 85.9877 33.9433 86.3598 33.5137 86.9526C32.7461 86.8796 31.6115 86.6899 30.9181 86.9236L30.6267 87.2475L30.187 86.8987C31.4601 86.3275 31.2785 86.5195 31.9706 85.4347Z" fill="#471001"/>
<path d="M36.5455 85.1761L36.8636 85.1758C37.2 85.6058 37.3362 85.7273 37.3896 86.2882C37.0467 87.3965 35.9155 87.852 34.8949 88.4636L34.5527 88.8366L34.2891 88.8478L34.1411 88.531C34.4953 85.7372 35.0312 86.4584 36.5455 85.1761Z" fill="#D0690C"/>
<path d="M29.4481 72.7033C30.8961 71.6471 31.5038 71.9844 33.4099 72.1687L33.6208 72.3916C33.3162 75.1222 33.4049 76.9085 29.9434 77.1905C28.9588 77.2708 28.9744 77.1753 28.0687 77.5893L27.9226 77.3319L28.0803 76.8469C27.9518 76.5133 27.8341 76.1755 27.7276 75.8342C27.3171 74.4805 28.0513 73.0523 29.4481 72.7033Z" fill="#471001"/>
<path d="M28.0803 76.8466C27.9518 76.5131 27.8341 76.1752 27.7276 75.8339C27.3171 74.4803 28.0513 73.0521 29.4481 72.7031L29.8303 73.251L31.4869 73.438C32.0197 74.9378 29.8211 77.7565 28.0803 76.8466Z" fill="#B85420"/>
<path d="M27.8974 79.7868C28.1185 79.6141 28.2927 79.3954 28.5694 79.5033C29.7714 79.9726 31.1724 81.072 32.2348 81.7379C32.1805 82.9002 32.3298 83.6039 31.6483 84.5665C31.734 84.8865 31.7784 85.1681 31.9703 85.4345C31.2781 86.5194 31.4597 86.3273 30.1867 86.8985C29.8435 86.5177 29.7299 86.4234 29.5551 85.9462L28.8497 84.2283C27.2461 81.9119 26.5425 82.6948 27.8974 79.7868Z" fill="#5F1601"/>
<path d="M27.8974 79.7871L28.0089 79.9241C28.9193 81.0256 30.0517 81.0638 30.2833 82.3112C30.1243 83.2736 29.6038 83.6051 28.8497 84.2286C27.2461 81.9122 26.5425 82.6951 27.8974 79.7871Z" fill="#CE4C06"/>
<path d="M29.5552 85.9461C30.3369 85.3678 30.7998 85.0491 31.6483 84.5664C31.7341 84.8864 31.7785 85.168 31.9704 85.4344C31.2782 86.5193 31.4598 86.3273 30.1867 86.8984C29.8436 86.5176 29.73 86.4233 29.5552 85.9461Z" fill="#380400"/>
<path d="M47.1985 60.8792C46.8528 61.237 46.7814 62.4027 46.6964 63.0015L46.5117 62.8233C46.515 58.3115 52.1234 58.5723 52.9292 60.3293C52.7212 61.1522 51.2567 61.2703 50.987 62.5998C50.1285 63.312 49.2706 63.1302 48.1161 63.1011C47.6583 62.3696 47.1415 61.6933 47.1985 60.8792Z" fill="#B85420"/>
<path d="M47.1985 60.8792C46.8528 61.237 46.7814 62.4027 46.6964 63.0015L46.5117 62.8233C46.515 58.3115 52.1234 58.5723 52.9292 60.3293C52.7212 61.1522 51.2567 61.2703 50.987 62.5998L50.9547 61.3075L50.8796 61.0729C49.8893 60.0226 49.2634 60.1384 48.1698 60.7626L47.1985 60.8792Z" fill="#380400"/>
<path d="M47.1982 60.8803L48.1694 60.7637C47.8354 61.2434 47.7776 61.3117 47.7872 61.8898C48.6925 62.8968 50.1447 62.0628 50.9543 61.3086L50.9866 62.6009C50.1282 63.3131 49.2702 63.1313 48.1158 63.1021C47.6579 62.3707 47.1411 61.6943 47.1982 60.8803Z" fill="#471001"/>
<path d="M44.0019 72.8676C44.359 72.355 44.4511 72.1385 45.0678 71.9648C45.648 71.9849 45.7152 72.0522 46.1767 72.4161C46.2654 72.6825 46.3504 72.95 46.4317 73.2186L46.4396 73.3383L46.5983 73.7303C45.8527 75.1414 46.8015 74.7075 45.9136 75.9395C44.7528 76.9705 44.4104 76.3535 43.1148 76.891C42.5965 77.1062 42.5998 77.6559 41.946 77.7666L41.8153 77.5512C41.7986 76.6278 42.4063 74.1968 43.0492 73.5054L43.3387 73.5417L44.0019 72.8676Z" fill="#78350B"/>
<path d="M45.9136 75.939C44.7528 76.97 44.4104 76.353 43.1148 76.8905C42.5965 77.1057 42.5998 77.6554 41.946 77.7661L41.8153 77.5507C41.7986 76.6273 42.4063 74.1963 43.0492 73.5049L43.3387 73.5412C42.9425 74.2216 42.57 74.6551 42.6225 75.3873C42.8076 75.4972 42.8792 75.5609 43.0863 75.6184C44.5688 76.6974 44.323 75.8604 45.9136 75.939Z" fill="#471001"/>
<path d="M44.002 72.8672C44.302 73.0697 44.8573 73.471 45.1494 73.6317C44.6659 74.0945 44.1455 74.5625 43.7438 75.0938L43.0864 75.6185C42.8793 75.5611 42.8077 75.4973 42.6226 75.3874C42.5701 74.6552 42.9426 74.2217 43.3388 73.5413L44.002 72.8672Z" fill="#A84503"/>
<path d="M44.002 72.8676C44.359 72.355 44.4512 72.1385 45.0679 71.9648C45.6481 71.9849 45.7153 72.0522 46.1768 72.4161C46.2655 72.6825 46.3505 72.95 46.4318 73.2186L46.4397 73.3383C45.9519 73.6423 45.9901 73.5124 45.823 73.9447C45.7153 73.7404 45.6069 73.6254 45.4641 73.445L45.1494 73.6321C44.8573 73.4714 44.3019 73.0701 44.002 72.8676Z" fill="#5F1601"/>
<path d="M45.1492 73.6324L45.4639 73.4453C45.6068 73.6258 45.7151 73.7407 45.8229 73.9451C45.0483 74.6888 44.8265 75.0215 43.7437 75.0945C44.1454 74.5632 44.6657 74.0952 45.1492 73.6324Z" fill="#471001"/>
<path d="M58.4361 71.0804C58.5912 70.4228 58.9718 68.4168 59.4901 68.1124C60.4015 67.5771 60.9365 68.0287 61.7369 68.2162L61.8418 68.24C62.5475 68.3972 62.369 68.2586 62.8388 68.7324C62.9251 69.4475 62.2995 70.9545 62.0353 71.7368C60.9875 72.3096 60.1039 72.8449 58.8685 72.5317C58.2283 72.0557 58.2446 71.9176 58.4361 71.0804Z" fill="#D0690C"/>
<path d="M61.8418 68.2393C62.5475 68.3964 62.369 68.2578 62.8388 68.7317C62.9251 69.4468 62.2995 70.9537 62.0353 71.736C60.9875 72.3088 60.1039 72.8442 58.8685 72.531C58.2283 72.0549 58.2446 71.9168 58.4361 71.0796L58.6303 71.9361L58.7857 72.0013L59.2457 71.8001C60.3991 71.2897 61.861 70.6779 62.3424 69.4326C62.3165 68.7012 62.323 68.914 61.8418 68.2393Z" fill="#5F1601"/>
<path d="M50.1139 77.753C50.391 77.2598 50.5325 76.7673 51.1257 76.6007C52.7325 76.15 54.6021 78.5859 53.5029 79.9407C53.1616 80.3615 52.1193 80.7489 51.5594 80.6765L50.7607 80.6914C49.6008 79.9095 49.6206 78.9504 50.1139 77.753Z" fill="#78350B"/>
<path d="M51.5594 80.6765L50.7607 80.6913C49.6008 79.9094 49.6206 78.9503 50.1139 77.7529C50.6058 78.5905 51.3073 80.3701 51.5594 80.6765Z" fill="#471001"/>
<path d="M54.2366 55.9557C55.0266 55.422 55.0479 55.1698 56.0573 55.3704C56.2585 55.4112 56.459 55.4549 56.6587 55.5019C57.3547 56.0596 58.1822 56.5192 57.9826 57.5212C57.4608 58.0526 56.8844 58.1568 56.1461 58.1097C55.3275 58.8262 54.6541 59.5088 53.5464 58.7811C52.7891 57.7162 53.554 56.7874 54.2366 55.9557Z" fill="#D0690C"/>
<path d="M54.2368 55.9557C55.0268 55.422 55.0481 55.1698 56.0575 55.3704C56.2587 55.4112 56.4592 55.4549 56.659 55.5019C57.355 56.0596 58.1824 56.5192 57.9829 57.5212C57.4611 58.0526 56.8846 58.1568 56.1464 58.1097C55.9356 56.7891 55.2938 56.6001 54.2368 55.9557Z" fill="#5F1601"/>
<path d="M53.0879 68.6982C53.8936 68.8324 54.3395 68.8374 54.9406 69.3722C55.3524 70.2413 55.1512 70.3972 54.6426 71.179C53.7549 72.3128 53.3824 72.3819 52.0826 72.9965L51.6901 72.8682C51.4431 72.0226 51.2028 72.1665 50.4038 71.9594C50.417 71.5238 50.8912 70.5415 51.1758 70.1692C51.5364 69.6975 51.7802 69.8026 52.3585 69.7741C52.4955 69.245 52.7097 69.0948 53.0879 68.6982Z" fill="#A84503"/>
<path d="M50.4038 71.9588C50.417 71.5231 50.8912 70.5409 51.1758 70.1685C51.5364 69.6969 51.7802 69.8019 52.3585 69.7734L52.2227 71.0268C51.7686 71.4919 51.7121 72.2349 51.6901 72.8675C51.4431 72.0219 51.2028 72.1659 50.4038 71.9588Z" fill="#471001"/>
<path d="M53.0874 68.6982C53.893 68.8324 54.339 68.8374 54.94 69.3722C55.3518 70.2413 55.1506 70.3972 54.6421 71.179C54.4552 70.5131 54.1787 70.4716 53.6062 70.0756C53.7155 69.6158 53.765 69.5275 53.69 69.0737L53.0874 68.6982Z" fill="#78350B"/>
<path d="M52.358 69.7741C52.495 69.245 52.7092 69.0948 53.0874 68.6982L53.69 69.0737C53.7651 69.5275 53.7155 69.6158 53.6063 70.0756C53.2189 70.7776 53.3918 70.7009 52.7696 71.0425L52.2222 71.0275L52.358 69.7741Z" fill="#A84503"/>
<path d="M36.0962 78.6402C36.6899 78.1302 36.4489 78.1965 37.1609 78.1201C37.5277 78.2848 38.6311 78.9114 38.7401 78.9507C39.5801 79.2615 41.3828 79.8628 40.9888 81.027C40.1703 81.5451 38.491 81.3323 37.5776 81.1165L36.4555 80.85L36.3327 80.7213L36.3395 80.5843C36.3973 79.5272 36.501 79.7088 36.0962 78.6402Z" fill="#CE4C06"/>
<path d="M36.0962 78.6402C36.6899 78.1302 36.4489 78.1965 37.1609 78.1201C37.5277 78.2848 38.6311 78.9114 38.7401 78.9507C37.833 79.5094 37.0771 79.9214 37.5776 81.1165L36.4555 80.85L36.3327 80.7213L36.3395 80.5843C36.3973 79.5272 36.501 79.7088 36.0962 78.6402Z" fill="#5F1601"/>
<path d="M60.4353 45.2513C61.2368 44.4231 60.9458 42.1242 63.3472 43.4581C63.677 44.0677 63.5492 43.9678 63.3829 44.8215C62.9268 45.5126 62.835 45.412 62.8418 46.107C62.2358 47.191 61.7448 47.7695 60.4812 47.3125C59.7857 46.6187 59.7868 45.9425 60.4353 45.2513Z" fill="#A84503"/>
<path d="M62.8418 46.1077C62.2358 47.1916 61.7448 47.7701 60.4812 47.3132C59.7857 46.6194 59.7868 45.9432 60.4353 45.252C61.1153 45.8536 61.5616 45.8316 62.3481 45.4299C62.7774 45.7765 62.649 45.5971 62.8418 46.1077Z" fill="#78350B"/>
<path d="M62.3482 45.4292C62.1548 44.9511 61.9265 44.3726 62.0465 43.8787L62.2971 43.8457C62.8004 44.2059 62.9601 44.3803 63.3829 44.8215C62.9269 45.5125 62.8351 45.4119 62.8418 46.107C62.6491 45.5965 62.7774 45.7758 62.3482 45.4292Z" fill="#5F1601"/>
<path d="M46.1109 66.3252C47.0522 66.5931 48.3551 66.798 48.4207 68.0671C48.4893 69.4006 47.6707 69.8843 47.3296 70.877L47.2822 71.018C47.2537 71.2002 47.2537 71.1295 47.0711 71.3096C46.5513 71.0781 45.8258 69.9897 45.4343 69.4797C45.3326 67.9531 45.4672 67.6952 46.1109 66.3252Z" fill="#471001"/>
<path d="M28.0838 89.928C28.9865 89.7813 29.7547 89.4465 30.5346 89.7395C31.0632 90.253 30.9108 89.9932 31.0828 90.7456C30.8225 92.054 30.0673 92.3469 28.8944 92.4194C28.1003 92.6105 27.8259 92.4785 27.1168 92.1337C26.7491 91.6187 26.8489 91.857 26.8218 91.1298C27.0107 90.5054 27.5222 90.2824 28.0838 89.928Z" fill="#471001"/>
<path d="M28.0838 89.9277C28.8464 90.1477 28.6792 89.9826 29.1187 90.5345C29.25 91.1877 29.0508 91.7668 28.8944 92.4191C28.1003 92.6102 27.8259 92.4782 27.1168 92.1334C26.7491 91.6184 26.8489 91.8567 26.8218 91.1295C27.0107 90.5051 27.5222 90.2821 28.0838 89.9277Z" fill="#78350B"/>
<path d="M40.0171 69.9571L40.2712 69.5723L40.5078 69.7186L40.5618 70.0318C40.5548 70.8157 40.6613 71.6098 40.649 72.2891C40.6721 72.9484 40.6941 73.0747 40.0776 73.5153C39.5285 74.0226 39.9814 74.7379 39.0383 75.1759L38.6127 75.0145C37.7656 73.8314 37.8011 73.6185 37.9806 72.3866C38.2033 72.0574 38.6827 71.5046 38.9528 71.1752C39.0816 70.9028 39.7784 70.2091 40.0171 69.9571Z" fill="#CE4C06"/>
<path d="M40.0776 73.5145C39.5285 74.0217 39.9814 74.737 39.0383 75.1751L38.6127 75.0137C37.7656 73.8306 37.8011 73.6177 37.9806 72.3857C38.7163 72.8996 39.3982 73.0766 40.0776 73.5145Z" fill="#A84503"/>
<path d="M40.0169 69.9571L40.271 69.5723L40.5077 69.7186L40.5617 70.0318C40.5547 70.8157 40.6612 71.6098 40.6489 72.2891C39.7669 71.9336 39.642 71.8396 38.9526 71.1752C39.0815 70.9028 39.7783 70.2091 40.0169 69.9571Z" fill="#5F1601"/>
<path d="M60.5315 65.5161C59.7329 65.2033 58.6315 62.9992 59.351 62.1152C60.0351 62.2606 60.6591 62.4341 61.3329 62.6205C62.0232 62.9535 61.929 62.7793 62.2149 63.3593C62.2334 64.3204 61.0526 64.8666 60.5315 65.5161Z" fill="#A84503"/>
<path d="M61.3331 62.6201C62.0234 62.9532 61.9293 62.7789 62.2151 63.3589C62.2337 64.32 61.0528 64.8662 60.5317 65.5158C60.596 64.1638 60.7287 63.8535 61.3331 62.6201Z" fill="#380400"/>
<path d="M65.1627 67.9443C65.5985 68.2557 65.5304 68.4777 66.159 68.8316C66.6907 68.5568 66.4173 68.7303 66.7454 68.069L66.7851 68.4162C66.7388 68.5054 66.694 68.5954 66.6507 68.6861C66.2484 69.5262 66.477 69.6723 66.7974 70.5567C65.2567 71.4521 64.3604 70.7645 64.4246 69.0272C64.4501 68.335 64.6398 68.3655 65.1627 67.9443Z" fill="#471001"/>
<path d="M46.4316 73.2185C47.1164 72.9002 47.5734 72.712 48.3015 72.9595C48.7831 73.1219 49.1754 73.4774 49.3847 73.9406C49.6365 74.4833 49.6062 74.9702 49.5059 75.5344L49.2483 75.8821C48.2459 75.4189 48.9052 74.5027 46.5982 73.7302L46.4395 73.3382L46.4316 73.2185Z" fill="#380400"/>
<path d="M55.917 65.4061C55.9998 64.8103 56.6439 63.6821 57.1816 63.3994C57.8282 63.8925 57.7687 65.6725 57.522 66.345C56.9528 66.8157 56.7423 67.1293 56.0925 67.0968C55.7811 66.6209 55.8885 65.9903 55.917 65.4061Z" fill="#78350B"/>
<path d="M55.917 65.4062C56.45 65.7228 56.985 66.0358 57.522 66.3452C56.9528 66.8159 56.7423 67.1295 56.0925 67.097C55.7811 66.6211 55.8885 65.9904 55.917 65.4062Z" fill="#5F1601"/>
<path d="M36.0962 78.6406C36.501 79.7091 36.3973 79.5276 36.3394 80.5847L36.3326 80.7217L36.4555 80.8504C35.9592 81.3395 34.4561 82.5209 33.8189 82.4564C33.8103 81.3585 35.4185 79.5397 36.0962 78.6406Z" fill="#471001"/>
<path d="M50.4038 71.959C51.2028 72.1661 51.4431 72.0221 51.6901 72.8678L52.0826 72.9961C51.6087 73.6963 52.0405 73.8601 51.3444 74.5695L51.3436 74.4456L50.8422 74.3765L51.4027 74.3457L50.7824 74.1641C50.5538 73.2735 50.4884 72.8751 50.4038 71.959Z" fill="#380400"/>
</svg>
